<?xml version="1.0" encoding="iso-8859-1"?>
<!-- Generator: Adobe Illustrator 19.0.0, SVG Export Plug-In . SVG Version: 6.00 Build 0)  -->
<svg version="1.1" id="Capa_1" xmlns="http://www.w3.org/2000/svg" xmlns:xlink="http://www.w3.org/1999/xlink" x="0px" y="0px"
	 viewBox="0 0 512 512" style="enable-background:new 0 0 512 512;" xml:space="preserve">
<g>
	<g>
		<path d="M257,0C117.104,0,0,113.029,0,255c0,141.18,116.444,257,257,257c142.13,0,255-117.257,255-257C512,114.06,397.951,0,257,0
			z M257,482.1C131.832,482.1,29.9,380.168,29.9,255C29.9,130.935,131.832,29.9,257,29.9c124.065,0,225.1,101.035,225.1,225.1
			C482.1,382.035,381.065,482.1,257,482.1z"/>
	</g>
</g>
<g>
	<g>
		<path d="M257,60C149.617,60,60,147.075,60,255c0,107.494,89.147,197,197,197c108.026,0,195-89.693,195-197
			C452,147.477,364.523,60,257,60z M257,422.1c-90.523,0-167.1-76.577-167.1-167.1c0-90.981,75.016-165.1,167.1-165.1
			c90.981,0,165.1,74.119,165.1,165.1C422.1,347.084,347.981,422.1,257,422.1z"/>
	</g>
</g>
<g>
	<g>
		<path d="M287,240h-15v-60h15c8.271,0,15,6.728,15,15c0,8.284,6.716,14.999,15,14.999s15-6.717,15-15.001
			C332,170.186,311.813,150,287,150h-15v-15c0-8.284-6.716-15-15-15s-15,6.716-15,15v15h-17c-24.813,0-45,20.187-45,45v30
			c0,24.813,20.187,45,45,45h17v62h-17c-8.271,0-15-6.729-15-15c0-8.284-6.716-15-15-15s-15,6.716-15,15c0,24.813,20.187,45,45,45
			h17v15c0,8.284,6.716,15,15,15s15-6.716,15-15v-15h15c24.813,0,45-20.187,45-45v-32C332,260.187,311.813,240,287,240z M242,240
			h-17c-8.271,0-15-6.729-15-15v-30c0-8.271,6.729-15,15-15h17V240z M302,317c0,8.271-6.729,15-15,15h-15v-62h15
			c8.271,0,15,6.729,15,15V317z"/>
	</g>
</g>
<g>
</g>
<g>
</g>
<g>
</g>
<g>
</g>
<g>
</g>
<g>
</g>
<g>
</g>
<g>
</g>
<g>
</g>
<g>
</g>
<g>
</g>
<g>
</g>
<g>
</g>
<g>
</g>
<g>
</g>
</svg>
